<?xml version="1.0" encoding="UTF-8" standalone="no"?>
<!DOCTYPE svg PUBLIC "-//W3C//DTD SVG 1.1//EN"
 "http://www.w3.org/Graphics/SVG/1.1/DTD/svg11.dtd">
<!-- Generated by graphviz version 2.38.0 (20140413.2041)
 -->
<!-- Title: G Pages: 1 -->
<svg width="297pt" height="430pt"
 viewBox="0.00 0.00 297.00 430.00" xmlns="http://www.w3.org/2000/svg" xmlns:xlink="http://www.w3.org/1999/xlink">
<g id="graph0" class="graph" transform="scale(1 1) rotate(0) translate(4 426)">
<title>G</title>
<polygon fill="white" stroke="none" points="-4,4 -4,-426 293,-426 293,4 -4,4"/>
<g id="clust1" class="cluster"><title>cluster_Global</title>
<path fill="none" stroke="gray" d="M20,-8C20,-8 269,-8 269,-8 275,-8 281,-14 281,-20 281,-20 281,-402 281,-402 281,-408 275,-414 269,-414 269,-414 20,-414 20,-414 14,-414 8,-408 8,-402 8,-402 8,-20 8,-20 8,-14 14,-8 20,-8"/>
<text text-anchor="middle" x="144.5" y="-401.2" font-family="Times New Roman,serif" font-size="11.00" fill="gray">Global</text>
</g>
<g id="clust3" class="cluster"><title>cluster_\App</title>
<path fill="none" stroke="gray" d="M176,-16C176,-16 261,-16 261,-16 267,-16 273,-22 273,-28 273,-28 273,-374 273,-374 273,-380 267,-386 261,-386 261,-386 176,-386 176,-386 170,-386 164,-380 164,-374 164,-374 164,-28 164,-28 164,-22 170,-16 176,-16"/>
<text text-anchor="middle" x="218.5" y="-373.2" font-family="Times New Roman,serif" font-size="11.00" fill="gray">App</text>
</g>
<g id="clust4" class="cluster"><title>cluster_\App\Controllers</title>
<path fill="none" stroke="gray" d="M187.5,-150C187.5,-150 249.5,-150 249.5,-150 255.5,-150 261.5,-156 261.5,-162 261.5,-162 261.5,-346 261.5,-346 261.5,-352 255.5,-358 249.5,-358 249.5,-358 187.5,-358 187.5,-358 181.5,-358 175.5,-352 175.5,-346 175.5,-346 175.5,-162 175.5,-162 175.5,-156 181.5,-150 187.5,-150"/>
<text text-anchor="middle" x="218.5" y="-345.2" font-family="Times New Roman,serif" font-size="11.00" fill="gray">Controllers</text>
</g>
<g id="clust5" class="cluster"><title>cluster_\App\Controllers\Admin</title>
<path fill="none" stroke="gray" d="M195.5,-258C195.5,-258 241.5,-258 241.5,-258 247.5,-258 253.5,-264 253.5,-270 253.5,-270 253.5,-318 253.5,-318 253.5,-324 247.5,-330 241.5,-330 241.5,-330 195.5,-330 195.5,-330 189.5,-330 183.5,-324 183.5,-318 183.5,-318 183.5,-270 183.5,-270 183.5,-264 189.5,-258 195.5,-258"/>
<text text-anchor="middle" x="218.5" y="-317.2" font-family="Times New Roman,serif" font-size="11.00" fill="gray">Admin</text>
</g>
<g id="clust6" class="cluster"><title>cluster_\App\Models</title>
<path fill="none" stroke="gray" d="M184,-70C184,-70 253,-70 253,-70 259,-70 265,-76 265,-82 265,-82 265,-130 265,-130 265,-136 259,-142 253,-142 253,-142 184,-142 184,-142 178,-142 172,-136 172,-130 172,-130 172,-82 172,-82 172,-76 178,-70 184,-70"/>
<text text-anchor="middle" x="218.5" y="-129.2" font-family="Times New Roman,serif" font-size="11.00" fill="gray">Models</text>
</g>
<g id="clust2" class="cluster"><title>cluster_\Core</title>
<path fill="none" stroke="gray" d="M28,-16C28,-16 104,-16 104,-16 110,-16 116,-22 116,-28 116,-28 116,-292 116,-292 116,-298 110,-304 104,-304 104,-304 28,-304 28,-304 22,-304 16,-298 16,-292 16,-292 16,-28 16,-28 16,-22 22,-16 28,-16"/>
<text text-anchor="middle" x="66" y="-291.2" font-family="Times New Roman,serif" font-size="11.00" fill="gray">Core</text>
</g>
<!-- \\Core\\Controller -->
<g id="node1" class="node"><title>\\Core\\Controller</title>
<polygon fill="none" stroke="black" points="108,-276 24,-276 24,-240 108,-240 108,-276"/>
<text text-anchor="start" x="32" y="-261.2" font-family="Courier,monospace" font-size="11.00">«abstract»</text>
<text text-anchor="start" x="32" y="-249.2" font-family="Courier,monospace" font-size="11.00">Controller</text>
</g>
<!-- \\Core\\Model -->
<g id="node2" class="node"><title>\\Core\\Model</title>
<polygon fill="none" stroke="black" points="108,-222 24,-222 24,-186 108,-186 108,-222"/>
<text text-anchor="start" x="32" y="-207.2" font-family="Courier,monospace" font-size="11.00">«abstract»</text>
<text text-anchor="start" x="49" y="-195.2" font-family="Courier,monospace" font-size="11.00">Model</text>
</g>
<!-- \\Core\\Error -->
<g id="node3" class="node"><title>\\Core\\Error</title>
<polygon fill="none" stroke="black" points="93,-168 39,-168 39,-132 93,-132 93,-168"/>
<text text-anchor="middle" x="66" y="-147.2" font-family="Courier,monospace" font-size="11.00">Error</text>
</g>
<!-- \\Core\\Router -->
<g id="node4" class="node"><title>\\Core\\Router</title>
<polygon fill="none" stroke="black" points="94.5,-114 37.5,-114 37.5,-78 94.5,-78 94.5,-114"/>
<text text-anchor="middle" x="66" y="-93.2" font-family="Courier,monospace" font-size="11.00">Router</text>
</g>
<!-- \\Core\\View -->
<g id="node5" class="node"><title>\\Core\\View</title>
<polygon fill="none" stroke="black" points="93,-60 39,-60 39,-24 93,-24 93,-60"/>
<text text-anchor="middle" x="66" y="-39.2" font-family="Courier,monospace" font-size="11.00">View</text>
</g>
<!-- \\App\\Controllers\\Admin\\Users -->
<g id="node6" class="node"><title>\\App\\Controllers\\Admin\\Users</title>
<polygon fill="none" stroke="black" points="245.5,-302 191.5,-302 191.5,-266 245.5,-266 245.5,-302"/>
<text text-anchor="middle" x="218.5" y="-281.2" font-family="Courier,monospace" font-size="11.00">Users</text>
</g>
<!-- \\App\\Controllers\\Admin\\Users&#45;&gt;\\Core\\Controller -->
<g id="edge3" class="edge"><title>\\App\\Controllers\\Admin\\Users&#45;&gt;\\Core\\Controller</title>
<path fill="none" stroke="black" d="M191.285,-279.471C171.152,-275.993 142.724,-271.082 118.137,-266.834"/>
<polygon fill="none" stroke="black" points="118.674,-263.375 108.224,-265.122 117.482,-270.273 118.674,-263.375"/>
</g>
<!-- \\App\\Controllers\\User -->
<g id="node7" class="node"><title>\\App\\Controllers\\User</title>
<polygon fill="none" stroke="black" points="245.5,-248 191.5,-248 191.5,-212 245.5,-212 245.5,-248"/>
<text text-anchor="middle" x="218.5" y="-227.2" font-family="Courier,monospace" font-size="11.00">User</text>
</g>
<!-- \\App\\Controllers\\User&#45;&gt;\\Core\\Controller -->
<g id="edge1" class="edge"><title>\\App\\Controllers\\User&#45;&gt;\\Core\\Controller</title>
<path fill="none" stroke="black" d="M191.285,-234.877C171.152,-238.623 142.724,-243.912 118.137,-248.486"/>
<polygon fill="none" stroke="black" points="117.415,-245.06 108.224,-250.33 118.696,-251.942 117.415,-245.06"/>
</g>
<!-- \\App\\Controllers\\Home -->
<g id="node8" class="node"><title>\\App\\Controllers\\Home</title>
<polygon fill="none" stroke="black" points="245.5,-194 191.5,-194 191.5,-158 245.5,-158 245.5,-194"/>
<text text-anchor="middle" x="218.5" y="-173.2" font-family="Courier,monospace" font-size="11.00">Home</text>
</g>
<!-- \\App\\Controllers\\Home&#45;&gt;\\Core\\Controller -->
<g id="edge4" class="edge"><title>\\App\\Controllers\\Home&#45;&gt;\\Core\\Controller</title>
<path fill="none" stroke="black" d="M191.484,-188.732C182.696,-193.139 172.867,-198.182 164,-203 142.299,-214.791 137.484,-218.817 116,-231 113.665,-232.324 111.262,-233.677 108.835,-235.038"/>
<polygon fill="none" stroke="black" points="107.04,-232.031 100.008,-239.956 110.447,-238.146 107.04,-232.031"/>
</g>
<!-- \\App\\Models\\ModelUser -->
<g id="node9" class="node"><title>\\App\\Models\\ModelUser</title>
<polygon fill="none" stroke="black" points="257,-114 180,-114 180,-78 257,-78 257,-114"/>
<text text-anchor="middle" x="218.5" y="-93.2" font-family="Courier,monospace" font-size="11.00">ModelUser</text>
</g>
<!-- \\App\\Models\\ModelUser&#45;&gt;\\Core\\Model -->
<g id="edge2" class="edge"><title>\\App\\Models\\ModelUser&#45;&gt;\\Core\\Model</title>
<path fill="none" stroke="black" d="M196.91,-114.155C176.945,-131.336 145.439,-157.349 116,-177 114.129,-178.249 112.196,-179.492 110.227,-180.722"/>
<polygon fill="none" stroke="black" points="108.22,-177.844 101.447,-185.992 111.822,-183.846 108.22,-177.844"/>
</g>
<!-- \\App\\Config -->
<g id="node10" class="node"><title>\\App\\Config</title>
<polygon fill="none" stroke="black" points="247,-60 190,-60 190,-24 247,-24 247,-60"/>
<text text-anchor="middle" x="218.5" y="-39.2" font-family="Courier,monospace" font-size="11.00">Config</text>
</g>
</g>
</svg>
