<?xml version="1.0" encoding="UTF-8" standalone="no"?>
<!DOCTYPE svg PUBLIC "-//W3C//DTD SVG 1.1//EN"
 "http://www.w3.org/Graphics/SVG/1.1/DTD/svg11.dtd">
<!-- Generated by graphviz version 2.38.0 (20140413.2041)
 -->
<!-- Title: G Pages: 1 -->
<svg width="297pt" height="538pt"
 viewBox="0.00 0.00 297.00 538.00" xmlns="http://www.w3.org/2000/svg" xmlns:xlink="http://www.w3.org/1999/xlink">
<g id="graph0" class="graph" transform="scale(1 1) rotate(0) translate(4 534)">
<title>G</title>
<polygon fill="white" stroke="none" points="-4,4 -4,-534 293,-534 293,4 -4,4"/>
<g id="clust1" class="cluster"><title>cluster_Global</title>
<path fill="none" stroke="gray" d="M20,-8C20,-8 269,-8 269,-8 275,-8 281,-14 281,-20 281,-20 281,-510 281,-510 281,-516 275,-522 269,-522 269,-522 20,-522 20,-522 14,-522 8,-516 8,-510 8,-510 8,-20 8,-20 8,-14 14,-8 20,-8"/>
<text text-anchor="middle" x="144.5" y="-509.2" font-family="Times New Roman,serif" font-size="11.00" fill="gray">Global</text>
</g>
<g id="clust3" class="cluster"><title>cluster_\App</title>
<path fill="none" stroke="gray" d="M176,-16C176,-16 261,-16 261,-16 267,-16 273,-22 273,-28 273,-28 273,-482 273,-482 273,-488 267,-494 261,-494 261,-494 176,-494 176,-494 170,-494 164,-488 164,-482 164,-482 164,-28 164,-28 164,-22 170,-16 176,-16"/>
<text text-anchor="middle" x="218.5" y="-481.2" font-family="Times New Roman,serif" font-size="11.00" fill="gray">App</text>
</g>
<g id="clust4" class="cluster"><title>cluster_\App\Controllers</title>
<path fill="none" stroke="gray" d="M187.5,-204C187.5,-204 249.5,-204 249.5,-204 255.5,-204 261.5,-210 261.5,-216 261.5,-216 261.5,-454 261.5,-454 261.5,-460 255.5,-466 249.5,-466 249.5,-466 187.5,-466 187.5,-466 181.5,-466 175.5,-460 175.5,-454 175.5,-454 175.5,-216 175.5,-216 175.5,-210 181.5,-204 187.5,-204"/>
<text text-anchor="middle" x="218.5" y="-453.2" font-family="Times New Roman,serif" font-size="11.00" fill="gray">Controllers</text>
</g>
<g id="clust5" class="cluster"><title>cluster_\App\Controllers\Admin</title>
<path fill="none" stroke="gray" d="M195.5,-366C195.5,-366 241.5,-366 241.5,-366 247.5,-366 253.5,-372 253.5,-378 253.5,-378 253.5,-426 253.5,-426 253.5,-432 247.5,-438 241.5,-438 241.5,-438 195.5,-438 195.5,-438 189.5,-438 183.5,-432 183.5,-426 183.5,-426 183.5,-378 183.5,-378 183.5,-372 189.5,-366 195.5,-366"/>
<text text-anchor="middle" x="218.5" y="-425.2" font-family="Times New Roman,serif" font-size="11.00" fill="gray">Admin</text>
</g>
<g id="clust6" class="cluster"><title>cluster_\App\Models</title>
<path fill="none" stroke="gray" d="M184,-70C184,-70 253,-70 253,-70 259,-70 265,-76 265,-82 265,-82 265,-184 265,-184 265,-190 259,-196 253,-196 253,-196 184,-196 184,-196 178,-196 172,-190 172,-184 172,-184 172,-82 172,-82 172,-76 178,-70 184,-70"/>
<text text-anchor="middle" x="218.5" y="-183.2" font-family="Times New Roman,serif" font-size="11.00" fill="gray">Models</text>
</g>
<g id="clust2" class="cluster"><title>cluster_\Core</title>
<path fill="none" stroke="gray" d="M28,-29C28,-29 104,-29 104,-29 110,-29 116,-35 116,-41 116,-41 116,-305 116,-305 116,-311 110,-317 104,-317 104,-317 28,-317 28,-317 22,-317 16,-311 16,-305 16,-305 16,-41 16,-41 16,-35 22,-29 28,-29"/>
<text text-anchor="middle" x="66" y="-304.2" font-family="Times New Roman,serif" font-size="11.00" fill="gray">Core</text>
</g>
<!-- \\Core\\Controller -->
<g id="node1" class="node"><title>\\Core\\Controller</title>
<polygon fill="none" stroke="black" points="108,-289 24,-289 24,-253 108,-253 108,-289"/>
<text text-anchor="start" x="32" y="-274.2" font-family="Courier,monospace" font-size="11.00">«abstract»</text>
<text text-anchor="start" x="32" y="-262.2" font-family="Courier,monospace" font-size="11.00">Controller</text>
</g>
<!-- \\Core\\Model -->
<g id="node2" class="node"><title>\\Core\\Model</title>
<polygon fill="none" stroke="black" points="108,-235 24,-235 24,-199 108,-199 108,-235"/>
<text text-anchor="start" x="32" y="-220.2" font-family="Courier,monospace" font-size="11.00">«abstract»</text>
<text text-anchor="start" x="49" y="-208.2" font-family="Courier,monospace" font-size="11.00">Model</text>
</g>
<!-- \\Core\\Error -->
<g id="node3" class="node"><title>\\Core\\Error</title>
<polygon fill="none" stroke="black" points="93,-181 39,-181 39,-145 93,-145 93,-181"/>
<text text-anchor="middle" x="66" y="-160.2" font-family="Courier,monospace" font-size="11.00">Error</text>
</g>
<!-- \\Core\\Router -->
<g id="node4" class="node"><title>\\Core\\Router</title>
<polygon fill="none" stroke="black" points="94.5,-127 37.5,-127 37.5,-91 94.5,-91 94.5,-127"/>
<text text-anchor="middle" x="66" y="-106.2" font-family="Courier,monospace" font-size="11.00">Router</text>
</g>
<!-- \\Core\\View -->
<g id="node5" class="node"><title>\\Core\\View</title>
<polygon fill="none" stroke="black" points="93,-73 39,-73 39,-37 93,-37 93,-73"/>
<text text-anchor="middle" x="66" y="-52.2" font-family="Courier,monospace" font-size="11.00">View</text>
</g>
<!-- \\App\\Controllers\\Admin\\Users -->
<g id="node6" class="node"><title>\\App\\Controllers\\Admin\\Users</title>
<polygon fill="none" stroke="black" points="245.5,-410 191.5,-410 191.5,-374 245.5,-374 245.5,-410"/>
<text text-anchor="middle" x="218.5" y="-389.2" font-family="Courier,monospace" font-size="11.00">Users</text>
</g>
<!-- \\App\\Controllers\\Admin\\Users&#45;&gt;\\Core\\Controller -->
<g id="edge3" class="edge"><title>\\App\\Controllers\\Admin\\Users&#45;&gt;\\Core\\Controller</title>
<path fill="none" stroke="black" d="M191.391,-383.699C182.314,-380.196 172.329,-375.611 164,-370 133.918,-349.733 105.63,-319.008 87.4536,-297.168"/>
<polygon fill="none" stroke="black" points="90.0387,-294.8 80.9998,-289.273 84.619,-299.23 90.0387,-294.8"/>
</g>
<!-- \\App\\Controllers\\User -->
<g id="node7" class="node"><title>\\App\\Controllers\\User</title>
<polygon fill="none" stroke="black" points="245.5,-356 191.5,-356 191.5,-320 245.5,-320 245.5,-356"/>
<text text-anchor="middle" x="218.5" y="-335.2" font-family="Courier,monospace" font-size="11.00">User</text>
</g>
<!-- \\App\\Controllers\\User&#45;&gt;\\Core\\Controller -->
<g id="edge1" class="edge"><title>\\App\\Controllers\\User&#45;&gt;\\Core\\Controller</title>
<path fill="none" stroke="black" d="M191.285,-326.329C170.823,-317.22 141.795,-304.297 116.937,-293.231"/>
<polygon fill="none" stroke="black" points="118.2,-289.962 107.641,-289.093 115.353,-296.357 118.2,-289.962"/>
</g>
<!-- \\App\\Controllers\\Home -->
<g id="node8" class="node"><title>\\App\\Controllers\\Home</title>
<polygon fill="none" stroke="black" points="245.5,-302 191.5,-302 191.5,-266 245.5,-266 245.5,-302"/>
<text text-anchor="middle" x="218.5" y="-281.2" font-family="Courier,monospace" font-size="11.00">Home</text>
</g>
<!-- \\App\\Controllers\\Home&#45;&gt;\\Core\\Controller -->
<g id="edge4" class="edge"><title>\\App\\Controllers\\Home&#45;&gt;\\Core\\Controller</title>
<path fill="none" stroke="black" d="M191.285,-281.736C171.241,-280.004 142.976,-277.563 118.465,-275.445"/>
<polygon fill="none" stroke="black" points="118.488,-271.935 108.224,-274.561 117.886,-278.909 118.488,-271.935"/>
</g>
<!-- \\App\\Controllers\\Task -->
<g id="node9" class="node"><title>\\App\\Controllers\\Task</title>
<polygon fill="none" stroke="black" points="245.5,-248 191.5,-248 191.5,-212 245.5,-212 245.5,-248"/>
<text text-anchor="middle" x="218.5" y="-227.2" font-family="Courier,monospace" font-size="11.00">Task</text>
</g>
<!-- \\App\\Controllers\\Task&#45;&gt;\\Core\\Controller -->
<g id="edge5" class="edge"><title>\\App\\Controllers\\Task&#45;&gt;\\Core\\Controller</title>
<path fill="none" stroke="black" d="M191.285,-237.142C171.152,-242.626 142.724,-250.371 118.137,-257.069"/>
<polygon fill="none" stroke="black" points="116.953,-253.764 108.224,-259.769 118.793,-260.518 116.953,-253.764"/>
</g>
<!-- \\App\\Models\\ModelUser -->
<g id="node10" class="node"><title>\\App\\Models\\ModelUser</title>
<polygon fill="none" stroke="black" points="257,-168 180,-168 180,-132 257,-132 257,-168"/>
<text text-anchor="middle" x="218.5" y="-147.2" font-family="Courier,monospace" font-size="11.00">ModelUser</text>
</g>
<!-- \\App\\Models\\ModelUser&#45;&gt;\\Core\\Model -->
<g id="edge2" class="edge"><title>\\App\\Models\\ModelUser&#45;&gt;\\Core\\Model</title>
<path fill="none" stroke="black" d="M179.911,-166.734C160.809,-175.238 137.345,-185.684 116.765,-194.846"/>
<polygon fill="none" stroke="black" points="115.25,-191.689 107.538,-198.953 118.097,-198.084 115.25,-191.689"/>
</g>
<!-- \\App\\Models\\ModelTask -->
<g id="node11" class="node"><title>\\App\\Models\\ModelTask</title>
<polygon fill="none" stroke="black" points="257,-114 180,-114 180,-78 257,-78 257,-114"/>
<text text-anchor="middle" x="218.5" y="-93.2" font-family="Courier,monospace" font-size="11.00">ModelTask</text>
</g>
<!-- \\App\\Models\\ModelTask&#45;&gt;\\Core\\Model -->
<g id="edge6" class="edge"><title>\\App\\Models\\ModelTask&#45;&gt;\\Core\\Model</title>
<path fill="none" stroke="black" d="M179.776,-112.105C174.199,-115.299 168.741,-118.939 164,-123 136.179,-146.829 143.385,-165.671 116,-190 114.865,-191.008 113.687,-191.993 112.474,-192.956"/>
<polygon fill="none" stroke="black" points="110.176,-190.295 104.07,-198.953 114.243,-195.993 110.176,-190.295"/>
</g>
<!-- \\App\\Config -->
<g id="node12" class="node"><title>\\App\\Config</title>
<polygon fill="none" stroke="black" points="247,-60 190,-60 190,-24 247,-24 247,-60"/>
<text text-anchor="middle" x="218.5" y="-39.2" font-family="Courier,monospace" font-size="11.00">Config</text>
</g>
</g>
</svg>
